<svg xmlns="http://www.w3.org/2000/svg" width="16" height="16" viewBox="0 0 16 16" fill="none">
<path fill-rule="evenodd" clip-rule="evenodd" d="M8 14.5C8.23 14.5 8.843 14.274 9.487 12.986C9.793 12.374 10.05 11.616 10.229 10.75H5.771C5.95 11.616 6.207 12.374 6.513 12.986C7.157 14.274 7.77 14.5 8 14.5ZM5.554 9.25C5.48153 8.41824 5.48153 7.58176 5.554 6.75H10.446C10.518 7.58178 10.518 8.41822 10.446 9.25H5.554ZM11.757 10.75C11.533 11.974 11.164 13.058 10.691 13.918C12.0995 13.2748 13.2337 12.152 13.891 10.75H11.757ZM14.38 9.25H11.95C12.0152 8.41794 12.0152 7.58206 11.95 6.75H14.379C14.5408 7.57548 14.5408 8.42452 14.379 9.25H14.38ZM4.049 9.25H1.62C1.45823 8.42452 1.45823 7.57548 1.62 6.75H4.05C3.9848 7.58206 3.9848 8.41794 4.05 9.25H4.049ZM2.109 10.75H4.243C4.467 11.974 4.836 13.058 5.309 13.918C3.90046 13.2748 2.76632 12.152 2.109 10.75ZM5.771 5.25H10.229C10.05 4.384 9.793 3.626 9.487 3.014C8.843 1.726 8.23 1.5 8 1.5C7.77 1.5 7.157 1.726 6.513 3.014C6.207 3.626 5.95 4.384 5.771 5.25ZM11.757 5.25H13.891C13.2337 3.848 12.0995 2.72519 10.691 2.082C11.164 2.942 11.533 4.026 11.757 5.25ZM5.31 2.082C4.837 2.942 4.468 4.026 4.244 5.25H2.109C2.76632 3.848 3.90146 2.72519 5.31 2.082ZM8 0C10.1217 0 12.1566 0.842855 13.6569 2.34315C15.1571 3.84344 16 5.87827 16 8C16 10.1217 15.1571 12.1566 13.6569 13.6569C12.1566 15.1571 10.1217 16 8 16C5.87827 16 3.84344 15.1571 2.34315 13.6569C0.842855 12.1566 0 10.1217 0 8C0 5.87827 0.842855 3.84344 2.34315 2.34315C3.84344 0.842855 5.87827 0 8 0Z" fill="black"/>
</svg>